<svg xmlns="http://www.w3.org/2000/svg" viewBox="0 0 512 512"><defs><style>.cls-1{fill:#fff;}</style></defs><g id="Layer_2" data-name="Layer 2"><path class="cls-1" d="M486.3,254.16l-49.21,31.77-.22-16.53H396a26.5,26.5,0,0,0-26.5,26.51V487.14H339V297.7a58.78,58.78,0,0,1,58.78-58.78h39.05l.22-16.53Z"/><polygon class="cls-1" points="323.8 271.6 307.27 271.83 307.27 487.14 276.79 487.14 276.79 271.83 260.26 271.6 292.03 222.39 323.8 271.6"/><path class="cls-1" d="M12.39,248.63,61.6,216.87l.23,16.52h40.83a26.51,26.51,0,0,0,26.51-26.51V145.65h30.49V205.1a58.78,58.78,0,0,1-58.78,58.78h-39L61.6,280.4Z"/><polygon class="cls-1" points="174.9 231.19 191.42 230.96 191.42 15.65 221.91 15.65 221.91 230.96 238.43 231.19 206.67 280.4 174.9 231.19"/></g></svg>