<svg id="Layer_1" data-name="Layer 1" xmlns="http://www.w3.org/2000/svg" viewBox="0 0 512 512"><defs><style>.cls-1{fill:#fff;}</style></defs><g id="Layer_2" data-name="Layer 2"><path class="cls-1" d="M246.58,488.35l-31.77-49.21,16.53-.22V398.05a26.49,26.49,0,0,0-26.5-26.5H13.6v-30.5H203a58.78,58.78,0,0,1,58.78,58.78h0v39.05l16.53.22Z"/><polygon class="cls-1" points="229.14 325.85 228.91 309.32 13.6 309.32 13.6 278.84 228.91 278.84 229.14 262.31 278.35 294.08 229.14 325.85"/><path class="cls-1" d="M252.11,14.44l31.76,49.21-16.52.23v40.83a26.51,26.51,0,0,0,26.51,26.51h61.23v30.49H295.64a58.78,58.78,0,0,1-58.78-58.78h0v-39l-16.52-.28Z"/><polygon class="cls-1" points="269.55 176.95 269.78 193.47 485.09 193.47 485.09 223.96 269.78 223.96 269.55 240.48 220.34 208.72 269.55 176.95"/></g></svg>